<svg width="21" height="21" viewBox="0 0 21 21" fill="none" xmlns="http://www.w3.org/2000/svg">
<path d="M9.7195 4.879C9.94788 5.27363 10.0625 5.4705 10.0625 5.6875C10.0625 5.9045 9.94875 6.10137 9.71863 6.496L8.62663 8.379C8.39738 8.77363 8.28363 8.9705 8.09463 9.079C7.90563 9.1875 7.67725 9.1875 7.21963 9.1875H5.03212C4.5745 9.1875 4.34612 9.1875 4.15712 9.079C3.96812 8.97138 3.85438 8.77363 3.62513 8.379L2.53137 6.496C2.303 6.10137 2.1875 5.9045 2.1875 5.6875C2.1875 5.4705 2.30125 5.27363 2.53137 4.879L3.62425 2.996C3.8535 2.60138 3.96725 2.4045 4.15625 2.296C4.34525 2.1875 4.57363 2.1875 5.03125 2.1875H7.21875C7.67637 2.1875 7.90475 2.1875 8.09375 2.296C8.28275 2.4045 8.3965 2.60138 8.62575 2.996L9.7195 4.879ZM18.4695 10.129C18.6979 10.5236 18.8125 10.7205 18.8125 10.9375C18.8125 11.1545 18.6987 11.3514 18.4695 11.746L17.3757 13.629C17.1465 14.0236 17.0319 14.2214 16.8438 14.329C16.6556 14.4375 16.4264 14.4375 15.9688 14.4375H13.7812C13.3236 14.4375 13.0953 14.4375 12.9062 14.329C12.7172 14.2214 12.6035 14.0236 12.3743 13.629L11.2805 11.746C11.0521 11.3514 10.9375 11.1545 10.9375 10.9375C10.9375 10.7205 11.0512 10.5236 11.2814 10.129L12.3743 8.246C12.6035 7.85137 12.7181 7.6545 12.9062 7.546C13.0953 7.4375 13.3236 7.4375 13.7812 7.4375H15.9688C16.4264 7.4375 16.6556 7.4375 16.8438 7.546C17.0319 7.6545 17.1465 7.85137 17.3757 8.246L18.4695 10.129ZM9.7195 14.504C9.94788 14.8986 10.0625 15.0964 10.0625 15.3125C10.0625 15.5286 9.94875 15.7264 9.71863 16.121L8.62575 18.004C8.3965 18.3986 8.28275 18.5964 8.09375 18.704C7.90475 18.8125 7.67637 18.8125 7.21875 18.8125H5.03125C4.57363 18.8125 4.34525 18.8125 4.15625 18.704C3.96725 18.5964 3.8535 18.3986 3.62425 18.004L2.5305 16.121C2.30212 15.7264 2.1875 15.5286 2.1875 15.3125C2.1875 15.0964 2.30125 14.8986 2.53137 14.504L3.62425 12.621C3.8535 12.2264 3.96725 12.0295 4.15625 11.921C4.34525 11.8125 4.57363 11.8125 5.03125 11.8125H7.21875C7.67637 11.8125 7.90475 11.8125 8.09375 11.921C8.28275 12.0286 8.3965 12.2264 8.62575 12.621L9.7195 14.504Z" fill="#2055F0" stroke="#2055F0" stroke-width="1.5" stroke-linecap="round" stroke-linejoin="round"/>
</svg>
