<svg width="24" height="24" viewBox="0 0 24 24" fill="none" xmlns="http://www.w3.org/2000/svg">
<path d="M21.1064 8.69325L15.2865 2.88149L15.8018 2.3669C16.0491 2.1199 16.349 1.99761 16.7014 2.00004C17.0547 2.00246 17.355 2.12717 17.6023 2.37417L21.6278 6.41819C21.8759 6.66519 22 6.95981 22 7.30206C22 7.64431 21.8763 7.93893 21.629 8.18593L21.1064 8.69325ZM8.19097 21.6281C7.95898 21.8597 7.67202 21.9832 7.3301 21.9986C6.98818 22.0139 6.70082 21.9061 6.46802 21.6753L2.37102 17.607C2.12367 17.36 2 17.0614 2 16.7111C2 16.3616 2.12367 16.0633 2.37102 15.8163L2.97242 15.2157L8.79236 21.0275L8.19097 21.6281ZM12.214 21.5494C12.0176 21.7447 11.7888 21.8424 11.5277 21.8424C11.2666 21.8424 11.0383 21.7447 10.8427 21.5494L2.44983 13.1683C2.25341 12.9722 2.1552 12.7437 2.1552 12.483C2.1552 12.2223 2.25301 11.9943 2.44862 11.7989L4.24674 9.99606C4.44317 9.80072 4.67313 9.70305 4.93665 9.70305C5.20016 9.70305 5.42973 9.80072 5.62534 9.99606L7.88421 12.276L12.3559 7.81059L10.074 5.55369C9.87754 5.35835 9.77933 5.13032 9.77933 4.8696C9.77933 4.60887 9.87754 4.38044 10.074 4.18429L11.8709 2.35964C12.0673 2.16349 12.3009 2.06542 12.5717 2.06542C12.8425 2.06542 13.0761 2.16309 13.2725 2.35843L21.6641 10.7383C21.8606 10.9344 21.9588 11.1677 21.9588 11.4381C21.9588 11.7085 21.8606 11.9418 21.6641 12.1379L19.8369 13.9335C19.6405 14.1289 19.4117 14.2265 19.1507 14.2265C18.8896 14.2265 18.6612 14.1289 18.4656 13.9335L16.2055 11.6536L11.7339 16.1202L14.017 18.3759C14.2126 18.5712 14.3104 18.8005 14.3104 19.0636C14.3104 19.3268 14.2126 19.5564 14.017 19.7526L12.214 21.5494Z" fill="#2055F0"/>
</svg>
