<svg width="21" height="21" viewBox="0 0 21 21" fill="none" xmlns="http://www.w3.org/2000/svg">
<path d="M8.82394 1.38338C8.91079 1.42643 8.98702 1.48819 9.04716 1.56421C9.1073 1.64023 9.14985 1.72864 9.17175 1.82306C9.19537 1.92675 9.84375 4.70138 9.84375 6.5625C9.84375 7.80938 9.26362 8.92106 8.36062 9.64163C8.0325 9.90413 7.875 10.1903 7.875 10.4291V11.067C7.875 11.0976 7.87675 11.1265 7.88025 11.1536C7.92488 11.4791 8.08631 12.6879 8.23725 13.9414C8.38556 15.1712 8.53125 16.5126 8.53125 17.0625C8.53125 17.7587 8.25469 18.4264 7.76241 18.9187C7.27012 19.4109 6.60244 19.6875 5.90625 19.6875C5.21006 19.6875 4.54238 19.4109 4.05009 18.9187C3.55781 18.4264 3.28125 17.7587 3.28125 17.0625C3.28125 16.5113 3.42694 15.1725 3.57525 13.9414C3.72619 12.6879 3.88763 11.4791 3.93225 11.1536L3.9375 11.067V10.4291C3.9375 10.1903 3.78 9.90413 3.45188 9.64163C2.9892 9.2728 2.61559 8.80445 2.35882 8.27137C2.10205 7.73829 1.96872 7.1542 1.96875 6.5625C1.96875 4.70794 2.61188 1.94775 2.64075 1.82438C2.67487 1.67848 2.75742 1.54845 2.87493 1.45549C2.99244 1.36253 3.13798 1.31213 3.28781 1.3125C3.65531 1.3125 3.95325 1.61044 3.95325 1.97794V5.91281C3.94808 6.00145 3.96112 6.0902 3.99159 6.17359C4.02205 6.25699 4.06928 6.33325 4.13037 6.39768C4.19145 6.46211 4.2651 6.51334 4.34675 6.5482C4.42841 6.58305 4.51634 6.60081 4.60512 6.60036C4.6939 6.59991 4.78165 6.58127 4.86295 6.54558C4.94425 6.5099 5.01737 6.45793 5.0778 6.39289C5.13823 6.32784 5.18469 6.25111 5.21431 6.16741C5.24392 6.08371 5.25607 5.99483 5.25 5.90625V1.96875C5.25 1.7947 5.31914 1.62778 5.44221 1.50471C5.56528 1.38164 5.7322 1.3125 5.90625 1.3125C6.0803 1.3125 6.24722 1.38164 6.37029 1.50471C6.49336 1.62778 6.5625 1.7947 6.5625 1.96875V5.94038C6.56615 6.11269 6.63811 6.27648 6.76253 6.39574C6.88696 6.51499 7.05366 6.57994 7.22597 6.57628C7.39828 6.57263 7.56208 6.50067 7.68133 6.37625C7.80059 6.25182 7.86553 6.08512 7.86187 5.91281V1.97531C7.86187 1.60913 8.1585 1.3125 8.526 1.3125C8.55487 1.3125 8.6835 1.3125 8.82394 1.38338ZM11.8125 7.21875C11.8125 5.65232 12.4348 4.15004 13.5424 3.0424C14.65 1.93477 16.1523 1.3125 17.7188 1.3125C17.8928 1.3125 18.0597 1.38164 18.1828 1.50471C18.3059 1.62778 18.375 1.7947 18.375 1.96875V9.80831L18.3999 10.0406C18.5043 11.0202 18.6045 12.0002 18.7005 12.9806C18.8619 14.6291 19.0312 16.4771 19.0312 17.0625C19.0312 17.7587 18.7547 18.4264 18.2624 18.9187C17.7701 19.4109 17.1024 19.6875 16.4062 19.6875C15.7101 19.6875 15.0424 19.4109 14.5501 18.9187C14.0578 18.4264 13.7812 17.7587 13.7812 17.0625C13.7812 16.4771 13.9506 14.6291 14.112 12.9806C14.1947 12.1446 14.2774 11.3439 14.3391 10.7507L14.3653 10.5H13.125C12.7769 10.5 12.4431 10.3617 12.1969 10.1156C11.9508 9.86944 11.8125 9.5356 11.8125 9.1875V7.21875Z" fill="#2055F0"/>
</svg>
