<svg width="21" height="21" viewBox="0 0 21 21" fill="none" xmlns="http://www.w3.org/2000/svg">
<path d="M19 14.775C19 15.136 18.8017 15.4495 18.4994 15.611L11.0383 19.829C10.8872 19.943 10.6983 20 10.5 20C10.3017 20 10.1128 19.943 9.96167 19.829L2.50056 15.611C2.34915 15.531 2.22243 15.4107 2.13418 15.2633C2.04594 15.1159 1.99953 14.9471 2 14.775V6.225C2 5.864 2.19834 5.5505 2.50056 5.389L9.96167 1.171C10.1128 1.057 10.3017 1 10.5 1C10.6983 1 10.8872 1.057 11.0383 1.171L18.4994 5.389C18.8017 5.5505 19 5.864 19 6.225V14.775ZM10.5 3.0425L4.87111 6.225L10.5 9.4075L16.1289 6.225L10.5 3.0425ZM3.88889 14.2145L9.55556 17.4255V11.051L3.88889 7.8495V14.2145ZM17.1111 14.2145V7.8495L11.4444 11.051V17.4255L17.1111 14.2145Z" fill="#2055F0"/>
</svg>
