<svg width="60" height="60" viewBox="0 0 60 60" fill="none" xmlns="http://www.w3.org/2000/svg">
<rect width="60" height="60" rx="30" fill="#2055F0"/>
<path d="M31.0001 43H29.0001C28.4697 43 27.9609 42.7893 27.5859 42.4142C27.2108 42.0391 27.0001 41.5304 27.0001 41L27.0032 35.6362C27.0033 35.5923 26.9918 35.5492 26.9699 35.5111C26.9479 35.4731 26.9164 35.4415 26.8784 35.4195C26.8404 35.3975 26.7972 35.3859 26.7533 35.3859C26.7094 35.3859 26.6662 35.3974 26.6282 35.4194L21.982 38.1106C21.5301 38.3715 20.9931 38.4422 20.4891 38.3072C19.9851 38.1721 19.5554 37.8425 19.2945 37.3906L18.2632 35.6006L18.2595 35.5944C18.0056 35.1427 17.939 34.6095 18.0741 34.1092C18.2092 33.609 18.5352 33.1818 18.982 32.9194L23.6451 30.2162C23.683 30.1943 23.7144 30.1627 23.7363 30.1248C23.7581 30.0868 23.7696 30.0438 23.7696 30C23.7696 29.9562 23.7581 29.9132 23.7363 29.8752C23.7144 29.8373 23.683 29.8057 23.6451 29.7837L18.9863 27.0831C18.762 26.9545 18.5653 26.7828 18.4076 26.578C18.2498 26.3731 18.134 26.1391 18.067 25.8894C17.9999 25.6397 17.9828 25.3791 18.0167 25.1228C18.0506 24.8665 18.1348 24.6193 18.2645 24.3956L19.292 22.6112C19.4218 22.3857 19.5951 22.1881 19.8018 22.0299C20.0086 21.8718 20.2446 21.7563 20.4963 21.69C20.7452 21.6232 21.0048 21.6065 21.2601 21.6408C21.5155 21.6752 21.7615 21.7599 21.9838 21.89L26.6282 24.5775C26.6662 24.5995 26.7094 24.611 26.7533 24.611C26.7972 24.611 26.8404 24.5994 26.8784 24.5774C26.9164 24.5554 26.9479 24.5238 26.9699 24.4858C26.9918 24.4477 27.0033 24.4045 27.0032 24.3606L27.0001 19C27.0001 18.4696 27.2108 17.9609 27.5859 17.5858C27.9609 17.2107 28.4697 17 29.0001 17H31.0001C31.5305 17 32.0392 17.2107 32.4143 17.5858C32.7894 17.9609 33.0001 18.4696 33.0001 19V24.3575C33 24.4014 33.0115 24.4446 33.0334 24.4826C33.0554 24.5207 33.0869 24.5523 33.1249 24.5743C33.1629 24.5963 33.2061 24.6079 33.25 24.6079C33.2939 24.6079 33.3371 24.5963 33.3751 24.5744L38.0213 21.8831C38.4733 21.6228 39.0101 21.5523 39.514 21.6873C40.0178 21.8223 40.4476 22.1517 40.7088 22.6031L41.7395 24.3931L41.7432 24.3988C42 24.8509 42.0677 25.3862 41.9314 25.888C41.7951 26.3898 41.466 26.8174 41.0157 27.0775L36.3576 29.7775C36.3197 29.7995 36.2883 29.831 36.2664 29.869C36.2445 29.9069 36.233 29.95 36.233 29.9937C36.233 30.0375 36.2445 30.0806 36.2664 30.1185C36.2883 30.1565 36.3197 30.188 36.3576 30.21L41.0157 32.91C41.24 33.0386 41.4367 33.2103 41.5945 33.4151C41.7523 33.62 41.8681 33.854 41.9352 34.1037C42.0023 34.3534 42.0195 34.6139 41.9857 34.8702C41.9519 35.1266 41.8678 35.3737 41.7382 35.5975L40.7107 37.3819C40.5809 37.6075 40.4076 37.805 40.2008 37.9632C39.9941 38.1213 39.758 38.2369 39.5063 38.3031C39.2575 38.3699 38.9979 38.3866 38.7425 38.3523C38.4872 38.3179 38.2412 38.2333 38.0188 38.1031L33.3745 35.4156C33.3365 35.3937 33.2934 35.3821 33.2495 35.3821C33.2057 35.3821 33.1626 35.3937 33.1246 35.4156C33.0866 35.4375 33.055 35.469 33.0331 35.507C33.0111 35.5449 32.9995 35.588 32.9995 35.6319L33.0001 41C33.0001 41.5304 32.7894 42.0391 32.4143 42.4142C32.0392 42.7893 31.5305 43 31.0001 43Z" fill="white"/>
</svg>
