<svg width="21" height="21" viewBox="0 0 21 21" fill="none" xmlns="http://www.w3.org/2000/svg">
<path d="M15.9833 14.3208L19.075 11.2C19.6972 10.5778 20.1736 9.86806 20.5042 9.07083C20.8347 8.27361 21 7.4375 21 6.5625C21 4.73472 20.3634 3.18383 19.0902 1.90983C17.8169 0.635834 16.2661 -0.000777066 14.4375 7.11816e-07C13.5625 7.11816e-07 12.7264 0.165278 11.9292 0.495834C11.1319 0.826389 10.4222 1.30278 9.8 1.925L6.67917 5.01667L15.9833 14.3208ZM6.5625 21C7.4375 21 8.27361 20.8347 9.07083 20.5042C9.86805 20.1736 10.5778 19.6972 11.2 19.075L14.3208 15.9833L5.01667 6.67917L1.925 9.8C1.30278 10.4222 0.826389 11.1319 0.495833 11.9292C0.165278 12.7264 0 13.5625 0 14.4375C0 16.2653 0.637 17.8158 1.911 19.089C3.185 20.3622 4.7355 20.9992 6.5625 21Z" fill="#2055F0"/>
</svg>
