<svg width="21" height="21" viewBox="0 0 21 21" fill="none" xmlns="http://www.w3.org/2000/svg">
<path d="M4.92189 7.21875H16.0781C16.1652 7.21875 16.2486 7.18418 16.3102 7.12264C16.3717 7.06111 16.4063 6.97765 16.4063 6.89062V3.28125C16.4063 2.93315 16.268 2.59931 16.0218 2.35317C15.7757 2.10703 15.4419 1.96875 15.0938 1.96875H5.90627C5.55817 1.96875 5.22433 2.10703 4.97819 2.35317C4.73205 2.59931 4.59377 2.93315 4.59377 3.28125V6.89062C4.59377 6.97765 4.62834 7.06111 4.68987 7.12264C4.75141 7.18418 4.83487 7.21875 4.92189 7.21875ZM7.21877 3.9375H8.50912C8.67871 3.935 8.84295 3.9968 8.96881 4.11049C9.09467 4.22418 9.17282 4.38131 9.18752 4.55027C9.19348 4.64004 9.18092 4.73007 9.15062 4.81478C9.12032 4.89949 9.07292 4.97706 9.01138 5.04268C8.94984 5.1083 8.87546 5.16057 8.79287 5.19623C8.71028 5.2319 8.62123 5.2502 8.53127 5.25H7.24092C7.07133 5.2525 6.90709 5.1907 6.78123 5.07701C6.65536 4.96332 6.57722 4.80619 6.56252 4.63723C6.55656 4.54746 6.56912 4.45743 6.59942 4.37272C6.62972 4.28801 6.67711 4.21044 6.73866 4.14482C6.8002 4.0792 6.87458 4.02693 6.95717 3.99127C7.03976 3.9556 7.1288 3.9373 7.21877 3.9375ZM18.375 9.19242C18.3757 9.10583 18.3592 9.01996 18.3265 8.93977C18.2938 8.85959 18.2456 8.78666 18.1846 8.7252C18.1236 8.66374 18.051 8.61496 17.971 8.58167C17.8911 8.54838 17.8054 8.53125 17.7188 8.53125H3.28127C3.19467 8.53125 3.10893 8.54838 3.02899 8.58167C2.94905 8.61496 2.87648 8.66374 2.81548 8.7252C2.75448 8.78666 2.70624 8.85959 2.67355 8.93977C2.64086 9.01996 2.62437 9.10583 2.62502 9.19242C2.62708 10.6319 3.02327 12.0434 3.7706 13.2737C4.51794 14.5041 5.58789 15.5063 6.86439 16.1716L6.57975 18.1625C6.53679 18.4432 6.58358 18.7303 6.71346 18.9829C6.82436 19.1951 6.99122 19.373 7.19597 19.4972C7.40072 19.6214 7.63554 19.6872 7.87502 19.6875H13.0971C13.3822 19.6914 13.6612 19.6053 13.8945 19.4414C14.0883 19.3012 14.24 19.1107 14.3334 18.8905C14.4268 18.6704 14.4583 18.4288 14.4244 18.1921L14.1356 16.1741C15.4125 15.5085 16.4827 14.5059 17.2301 13.2751C17.9774 12.0443 18.3734 10.6324 18.375 9.19242ZM7.87502 18.375L8.11537 16.6934C9.66704 17.1855 11.333 17.1855 12.8847 16.6934L13.125 18.375H7.87502Z" fill="#2055F0"/>
</svg>
